{"title":"The.big.bang.theory.s10e03.720p.hdtv.x265-[GreatIndiaRipper]","uid":16006802,"size":87425148,"categoryP":"video","categoryS":"hd___tv_shows","magnet":"?xt=urn:btih:afe79d1ab20a47ec55aa78b8009a904bda31b316&amp;dn=The.big.bang.theory.s10e03.720p.hdtv.x265-%5BGreatIndiaRipper%5D&amp;tr=udp%3A%2F%2Ftracker.leechers-paradise.org%3A6969&amp;tr=udp%3A%2F%2Fzer0day.ch%3A1337&amp;tr=udp%3A%2F%2Fopen.demonii.com%3A1337&amp;tr=udp%3A%2F%2Ftracker.coppersurfer.tk%3A6969&amp;tr=udp%3A%2F%2Fexodus.desync.com%3A6969","seeders":1,"leechers":1,"uploader":"greatindiaripper","files":3,"time":1476191311,"description":"General\r\n\r\nFormat                      : Matroska\r\nFormat version              : Version 4 / Version 2\r\nFile size                   : 82.8 MiB\r\nDuration                    : 20 min\r\nOverall bit rate            : 564 kb/s\r\nMovie name                  : The.big.bang.theory.s10e03.720p.hdtv.x265-dimension[GreatIndiaRipper]\r\n\r\n\r\nVideo\r\nID                          : 1\r\nFormat                      : HEVC\r\nFormat/Info                 : High Efficiency Video Coding\r\nFormat profile              :   @Main\r\nCodec ID                    : V_MPEGH/ISO/HEVC\r\nDuration                    : 20 min\r\nBit rate                    : 450 kb/s\r\nWidth                       : 1 280 pixels\r\nHeight                      : 720 pixels\r\nDisplay aspect ratio        : 16:9\r\nFrame rate mode             : Constant\r\nFrame rate                  : 23.976 (24000/1001) FPS\r\nColor space                 : YUV\r\nChroma subsampling          : 4:2:0\r\nBit depth                   : 8 bits\r\nBits/(Pixel*Frame)          : 0.020\r\nStream size                 : 66.0 MiB (80%)\r\nTitle                       : The.big.bang.theory.s10e03.720p.hdtv.x265-dimension[GreatIndiaRipper]\r\n\r\nMatrix coefficients         : BT.709\r\n\r\nAudio\r\nID                          : 2\r\nFormat                      : AAC\r\nFormat/Info                 : Advanced Audio Codec\r\nFormat profile              : LC\r\nCodec ID                    : A_AAC\r\nDuration                    : 20 min\r\nBit rate                    : 112 kb/s\r\nChannel(s)                  : 2 channels\r\nChannel positions           : Front: L R\r\nSampling rate               : 48.0 kHz\r\nFrame rate                  : 46.875 FPS (1024 spf)\r\nCompression mode            : Lossy\r\nStream size                 : 16.4 MiB (20%)\r\nTitle                       : The.big.bang.theory.s10e03.720p.hdtv.x265-dimension[GreatIndiaRipper]\r\nDefault                     : Yes\r\nForced                      : No","torrent":{"xt":"urn:btih:afe79d1ab20a47ec55aa78b8009a904bda31b316","amp;dn":"The.big.bang.theory.s10e03.720p.hdtv.x265-%5BGreatIndiaRipper%5D","amp;tr":["udp%3A%2F%2Ftracker.leechers-paradise.org%3A6969","udp%3A%2F%2Fzer0day.ch%3A1337","udp%3A%2F%2Fopen.demonii.com%3A1337","udp%3A%2F%2Ftracker.coppersurfer.tk%3A6969","udp%3A%2F%2Fexodus.desync.com%3A6969"],"infoHash":"afe79d1ab20a47ec55aa78b8009a904bda31b316","infoHashBuffer":{"type":"Buffer","data":[175,231,157,26,178,10,71,236,85,170,120,184,0,154,144,75,218,49,179,22]},"announce":[],"urlList":[]}}